<svg xmlns="http://www.w3.org/2000/svg" width="500" height="500" viewBox="0 0 500 500" version="1.1"><path d="M 326.500 11.572 C 325.400 11.818, 322.025 12.501, 319 13.089 C 310.775 14.689, 296.444 22.022, 288.526 28.684 C 273.837 41.043, 265.742 54.323, 254.498 84.500 C 244.790 110.557, 240.347 119.437, 233.876 125.719 C 230.919 128.589, 228.114 130.895, 227.642 130.842 C 225.935 130.651, 212.610 142.712, 204.267 152 C 174.777 184.827, 154.711 222.191, 131.606 287.299 C 125.815 303.619, 125.167 306.767, 127.183 308.783 C 128.093 309.693, 130.355 306.113, 137.005 293.233 C 158.820 250.978, 184.092 215.811, 212.627 188 C 225.957 175.007, 242.150 161.185, 245.319 160.093 C 245.969 159.869, 240.200 166.199, 232.500 174.159 C 211.896 195.458, 201.353 207.210, 200.560 209.765 C 200.173 211.010, 199.467 211.788, 198.991 211.494 C 197.780 210.746, 178.009 234.755, 166.164 251.358 C 150.335 273.545, 127.601 313.031, 125.025 322.813 C 124.400 325.184, 123.613 327.846, 123.275 328.727 C 122.866 329.791, 123.053 330.086, 123.830 329.605 C 125.525 328.558, 125.268 329.804, 123.163 332.846 C 121.150 335.754, 119.299 340.148, 120.781 338.500 C 121.275 337.950, 124.616 332.966, 128.204 327.424 C 135.876 315.572, 147.541 299.620, 152.756 293.849 C 165.073 280.215, 187.039 266.009, 234.500 240.984 C 278.058 218.017, 293.570 208.003, 310.202 192.115 C 321.821 181.015, 328.267 171.766, 332.143 160.630 C 334.559 153.691, 334.961 151.035, 334.887 142.500 C 334.839 137, 334.489 131.382, 334.109 130.016 C 333.340 127.253, 337.755 117.307, 343.654 108.513 C 347.511 102.766, 347.618 102.308, 345.250 101.689 C 344.172 101.408, 344.555 101.187, 346.247 101.116 C 348.112 101.037, 350.519 99.456, 353.747 96.190 C 356.361 93.545, 360.446 89.761, 362.824 87.781 C 366.770 84.496, 366.966 84.124, 365.074 83.523 C 362.456 82.693, 362.367 81, 364.941 81 C 366.009 81, 367.160 80.550, 367.500 80 C 368.601 78.219, 370.996 78.847, 370.274 80.728 C 369.839 81.861, 371.352 81.178, 374.670 78.743 C 377.452 76.700, 382.827 73.219, 386.614 71.006 C 392.739 67.426, 393.671 66.470, 395.051 62.346 L 396.603 57.709 409.551 53.455 C 416.673 51.116, 424.975 48.037, 428 46.614 L 433.500 44.026 409.153 44.263 L 384.805 44.500 389.153 40.673 C 400.731 30.480, 415.324 22.314, 425.250 20.473 C 431.560 19.303, 429.432 18, 421.210 18 C 412.217 18, 404.097 19.869, 395.302 23.962 C 389.246 26.780, 388.969 26.815, 383.302 25.470 C 380.111 24.713, 372.958 22.313, 367.407 20.136 C 361.856 17.959, 354.392 15.275, 350.820 14.172 C 344.423 12.196, 330.406 10.697, 326.500 11.572 M 283.313 39.626 C 282.576 41.546, 286.167 44.333, 287.228 42.665 C 288.517 40.638, 288.067 39.251, 285.939 38.694 C 284.656 38.359, 283.665 38.711, 283.313 39.626 M 277.199 41.623 C 275.713 43.224, 276.428 45, 278.559 45 C 280.103 45, 280.434 43.220, 279.235 41.361 C 278.703 40.536, 278.140 40.609, 277.199 41.623 M 333.667 44.667 C 332.398 45.935, 333.007 49.065, 334.645 49.694 C 336.589 50.440, 339.123 47.484, 338.324 45.403 C 337.768 43.954, 334.842 43.491, 333.667 44.667 M 346.188 62.063 C 346.428 62.784, 347.216 63.572, 347.938 63.813 C 348.688 64.063, 349.063 63.688, 348.813 62.938 C 348.572 62.216, 347.784 61.428, 347.063 61.188 C 346.313 60.938, 345.938 61.313, 346.188 62.063 M 357.755 71.500 C 358.341 74.566, 359.133 74.634, 361.595 71.830 C 363.268 69.925, 363.291 69.737, 361.782 70.287 C 360.837 70.631, 359.798 70.482, 359.473 69.956 C 358.324 68.098, 357.284 69.033, 357.755 71.500 M 352 72.723 C 352 73.981, 354.858 76.475, 355.530 75.803 C 355.795 75.538, 355.110 74.504, 354.006 73.506 C 352.903 72.507, 352 72.155, 352 72.723 M 361.677 73.703 C 360.551 73.995, 360.072 74.746, 360.427 75.669 C 360.742 76.491, 361 77.352, 361 77.582 C 361 78.289, 363.428 78.015, 364.784 77.155 C 366.018 76.371, 365.464 72.878, 364.143 73.116 C 363.789 73.180, 362.679 73.444, 361.677 73.703 M 329 84.893 C 329 85.384, 329.712 86.059, 330.582 86.393 C 333.028 87.332, 333.351 87.128, 332 85.500 C 330.620 83.838, 329 83.510, 329 84.893 M 316.500 88 C 316.149 88.567, 316.990 89, 318.441 89 C 319.848 89, 321 88.550, 321 88 C 321 87.450, 320.127 87, 319.059 87 C 317.991 87, 316.840 87.450, 316.500 88 M 330.056 92.561 C 331.950 93.970, 334.762 95.381, 336.305 95.697 C 338.132 96.072, 338.927 96.747, 338.586 97.636 C 338.298 98.386, 338.499 99, 339.031 99 C 339.564 99, 340 98.362, 340 97.582 C 340 94.315, 338.644 93.069, 334.399 92.433 C 331.966 92.068, 329.729 91.371, 329.429 90.885 C 329.128 90.398, 328.371 90, 327.747 90 C 327.122 90, 328.161 91.153, 330.056 92.561 M 329 95.933 C 329 96.446, 328.100 97.151, 327 97.500 C 324.342 98.344, 324.489 99.256, 327.507 100.656 C 330.199 101.904, 332.031 100.631, 330.191 98.791 C 329.622 98.222, 329.394 97.136, 329.685 96.378 C 329.976 95.620, 329.941 95, 329.607 95 C 329.273 95, 329 95.420, 329 95.933 M 329.667 107.667 C 329.300 108.033, 329.029 109.271, 329.063 110.417 C 329.122 112.332, 329.204 112.307, 330.085 110.105 C 331.064 107.657, 330.861 106.472, 329.667 107.667 M 270.161 111.016 C 259.266 112.532, 247.417 117.348, 240 123.274 L 237.500 125.271 240 124.725 C 241.375 124.424, 247.126 122.801, 252.780 121.118 C 266.615 116.999, 278.629 115.007, 289.662 115.003 C 302.856 114.999, 311.155 116.764, 329.500 123.479 C 330.601 123.882, 330.152 123.262, 328.500 122.099 C 324.393 119.209, 310.915 114.087, 303.127 112.458 C 294.509 110.654, 277.961 109.931, 270.161 111.016 M 298.228 124.912 C 296.839 128.742, 297.113 129.774, 298.934 127.579 C 299.605 126.771, 299.998 125.073, 299.809 123.805 C 299.503 121.758, 299.326 121.881, 298.228 124.912 M 273.061 128 C 273.061 130.855, 273.249 131.178, 274.080 129.750 C 274.772 128.561, 274.772 127.439, 274.080 126.250 C 273.249 124.822, 273.061 125.145, 273.061 128 M 291.720 130.332 C 291.324 131.339, 291.029 133.139, 291.063 134.332 C 291.124 136.389, 291.177 136.375, 292.101 134.062 C 292.636 132.722, 292.932 130.922, 292.758 130.062 C 292.497 128.777, 292.313 128.825, 291.720 130.332 M 318.667 130.667 C 317.711 131.622, 317.845 133, 318.893 133 C 319.384 133, 320.045 132.325, 320.362 131.500 C 320.947 129.976, 319.881 129.452, 318.667 130.667 M 304.607 137.250 C 304.015 140.343, 304.286 144, 305.107 144 C 306.128 144, 307 141.198, 307 137.918 C 307 134.486, 305.231 133.992, 304.607 137.250 M 285 148.333 C 285 150.900, 285.407 153, 285.905 153 C 286.720 153, 286.239 145.091, 285.362 144.083 C 285.163 143.854, 285 145.767, 285 148.333 M 291 147.700 C 291 151.799, 292.422 151.266, 293.538 146.750 C 294.067 144.608, 293.861 144, 292.608 144 C 291.420 144, 291 144.967, 291 147.700 M 300.250 145.559 C 298.801 147.131, 298.547 154, 299.937 154 C 300.453 154, 300.638 155.688, 300.349 157.750 L 299.823 161.500 301.411 158.636 C 303.017 155.741, 303.344 150.296, 302.150 146.351 C 301.610 144.568, 301.288 144.433, 300.250 145.559 M 245.919 149.414 C 245.674 149.659, 245.638 151.914, 245.838 154.426 C 246.241 159.500, 248.009 159.718, 247.985 154.691 C 247.970 151.553, 246.791 148.542, 245.919 149.414 M 250.738 187.614 C 250.101 188.646, 251.580 191.784, 252.320 190.971 C 252.556 190.712, 252.433 189.630, 252.047 188.566 C 251.661 187.503, 251.072 187.074, 250.738 187.614 M 254.268 200.474 C 238.158 208.627, 221.241 219.406, 209.504 228.996 C 205.377 232.369, 202 234.951, 202 234.733 C 202 233.806, 170.750 265.198, 164.404 272.500 C 152.206 286.536, 138.124 305.916, 128.575 321.809 C 122.726 331.542, 124.953 330.130, 131.804 319.760 C 162.175 273.791, 201.928 237.328, 266.500 196.208 C 274.958 190.821, 269.756 192.636, 254.268 200.474 M 390.948 246.563 C 389.876 247.854, 389.947 248.950, 391.351 252.855 C 392.286 255.456, 392.848 258.690, 392.600 260.042 C 392.352 261.394, 392.115 267.054, 392.074 272.620 L 392 282.740 387.659 283.955 C 385.272 284.624, 382.031 286.197, 380.457 287.452 C 377.619 289.716, 377.610 289.756, 379.383 292.462 L 381.170 295.189 383.335 293.219 C 385.903 290.883, 389.994 288.660, 390.603 289.270 C 390.841 289.508, 391.143 317.332, 391.275 351.101 C 391.496 407.952, 391.650 412.852, 393.350 417.249 C 394.361 419.861, 395.561 422.229, 396.017 422.511 C 396.474 422.793, 397.782 420.527, 398.924 417.474 C 400.943 412.078, 401 410.229, 401 350.462 C 401 282.510, 400.614 286.088, 407.316 291.973 L 410.702 294.946 413.101 292.392 C 415.483 289.857, 415.486 289.828, 413.500 288.310 C 410.694 286.165, 403.822 283.048, 401.842 283.022 C 400.361 283.002, 400.213 281.423, 400.459 268.250 C 400.610 260.137, 401.077 251.988, 401.497 250.139 C 402.049 247.708, 401.878 246.537, 400.880 245.905 C 398.595 244.457, 392.352 244.871, 390.948 246.563 M 392.270 247.250 C 391.159 248.673, 392.527 255, 393.945 255 C 395.239 255, 395.626 253.236, 395.177 249.391 C 394.760 245.820, 393.887 245.177, 392.270 247.250 M 397 251 C 397 255.339, 398.399 256.372, 399.370 252.750 C 400.378 248.988, 400.077 247, 398.500 247 C 397.417 247, 397 248.111, 397 251 M 394.500 271 C 393.239 271.542, 393.055 271.859, 394 271.859 C 394.825 271.859, 396.400 271.473, 397.500 271 C 398.761 270.458, 398.945 270.141, 398 270.141 C 397.175 270.141, 395.600 270.527, 394.500 271 M 238.458 279.424 C 237.019 281.620, 237.016 282.130, 238.419 284.844 C 240.285 288.451, 246.362 293.543, 254.500 298.317 C 262.248 302.862, 266.428 307.306, 268.686 313.395 C 270.782 319.050, 272.633 320.560, 276.330 319.632 C 279.802 318.761, 280.713 315.043, 278.706 309.933 C 276.792 305.060, 277.827 304.870, 284.217 308.922 C 292.140 313.947, 296.965 325, 296.988 338.179 C 297.001 345.519, 298.394 348, 302.500 348 C 306.221 348, 308 345.434, 308 340.065 C 308 335.634, 306.686 326.788, 305.438 322.820 C 304.973 321.341, 305.269 321.275, 307.905 322.270 C 310.453 323.232, 311.218 323.113, 313.029 321.473 C 315.722 319.036, 315.152 315.534, 311.103 309.649 C 305.272 301.174, 296.828 297.200, 277.901 294.024 C 263.234 291.562, 256.839 288.852, 249.651 282.054 C 243.727 276.452, 240.849 275.775, 238.458 279.424 M 395.500 280.535 C 392.988 281.745, 392.906 281.882, 395 281.378 C 396.375 281.046, 397.928 280.376, 398.450 279.888 C 399.746 278.677, 399.034 278.833, 395.500 280.535 M 395 282.896 C 392.884 283.485, 392.769 283.695, 394.250 284.265 C 396.238 285.029, 399 284.231, 399 282.893 C 399 281.896, 398.588 281.896, 395 282.896 M 214.607 285.095 C 213.173 286.222, 212 287.946, 212 288.925 C 212 291.446, 222.225 311.968, 226.942 318.915 C 229.118 322.119, 232.946 326.788, 235.449 329.291 C 237.952 331.794, 240 334.724, 240 335.802 C 240 336.880, 241.185 340.853, 242.634 344.631 C 247.190 356.510, 249.174 365.193, 249.535 374.827 C 249.728 380.003, 250.409 384.788, 251.064 385.577 C 252.731 387.586, 255.657 387.343, 258 385 C 259.660 383.340, 259.996 381.684, 259.979 375.250 C 259.968 370.988, 259.340 364.575, 258.585 361 C 257.830 357.425, 257.335 354.367, 257.485 354.204 C 258.098 353.541, 267.736 365.241, 270.942 370.540 C 272.834 373.669, 275.170 379.397, 276.133 383.269 C 277.931 390.505, 279.001 391.958, 282.550 391.985 C 287.422 392.021, 288.221 387.137, 285.024 376.855 C 282.786 369.656, 276.896 360.442, 268.631 351.212 C 265.534 347.754, 263 344.723, 263 344.477 C 263 343.732, 273.215 347.972, 277.678 350.569 C 281.061 352.537, 282.251 354.054, 283.928 358.538 C 285.068 361.583, 286 364.483, 286 364.981 C 286 366.109, 290.036 369, 291.612 369 C 292.253 369, 293.769 368.198, 294.980 367.217 C 297.168 365.446, 297.171 365.395, 295.478 359.467 C 291.607 345.915, 286.453 341.476, 266.455 334.465 C 259.609 332.065, 252.083 328.777, 249.731 327.159 C 240.671 320.925, 232.857 310.406, 225.342 294.324 C 220.369 283.683, 218.473 282.053, 214.607 285.095 M 385.169 287.179 C 378.851 289.118, 378.152 289.752, 380.141 291.741 C 380.995 292.595, 382.183 292.268, 384.873 290.441 C 388.633 287.886, 393.835 287.235, 395.687 289.087 C 396.470 289.870, 396.962 289.870, 397.446 289.087 C 398.686 287.081, 404.703 287.879, 407.766 290.457 C 409.977 292.317, 410.967 292.633, 411.843 291.757 C 413.689 289.911, 413.259 289.321, 408.750 287.516 C 402.578 285.046, 392.581 284.903, 385.169 287.179 M 392.986 291.215 C 392.979 292.472, 392.703 294.508, 392.372 295.740 C 391.909 297.468, 392.303 298.177, 394.099 298.841 C 397.448 300.080, 400.002 299.122, 399.986 296.633 C 399.965 293.234, 398.849 289.975, 397.907 290.557 C 397.431 290.852, 396.132 290.606, 395.021 290.011 C 393.268 289.073, 392.998 289.233, 392.986 291.215 M 392.228 355.664 C 392.546 404.539, 392.796 411.999, 394.229 415.500 C 395.771 419.263, 395.857 415.979, 395.684 360.014 C 395.509 303.391, 395.412 300.510, 393.682 300.177 C 391.939 299.842, 391.879 302.125, 392.228 355.664 M 397.667 300.667 C 397.300 301.033, 397.034 327.696, 397.076 359.917 C 397.141 410.172, 397.344 418.002, 398.500 415 C 399.569 412.224, 399.864 399.966, 399.924 355.750 C 399.966 325.087, 399.625 300, 399.167 300 C 398.708 300, 398.033 300.300, 397.667 300.667 M 111.293 362.107 C 109.585 366.173, 103.011 380.527, 96.684 394.005 C 75.385 439.372, 69.202 458.200, 67.421 483.119 C 66.869 490.841, 66.983 492.281, 68.063 491.262 C 68.844 490.526, 69.282 488.232, 69.146 485.595 C 68.833 479.549, 73.264 458.245, 77.091 447.398 C 85.029 424.898, 98.306 398.120, 111.678 377.643 C 119.558 365.576, 121.353 364.105, 115.118 374.826 C 109.597 384.317, 98.635 406.443, 94.477 416.488 C 90.140 426.965, 69.856 486.190, 70.414 486.747 C 71.441 487.775, 89.348 454.425, 96.169 438.781 C 98.395 433.677, 103.768 420.322, 108.108 409.105 C 112.448 397.888, 118.238 384.456, 120.975 379.257 L 125.951 369.805 121.726 364.608 C 119.402 361.750, 116.802 358.354, 115.949 357.062 C 114.415 354.740, 114.362 354.797, 111.293 362.107 M 205 445 L 205 461 207.500 461 C 209.929 461, 210 460.800, 210 454 L 210 447 213 447 L 216 447 216 454 C 216 460.800, 216.071 461, 218.500 461 L 221 461 221 445 L 221 429 218.500 429 C 216.069 429, 216 429.196, 216 436.066 L 216 443.133 213.250 442.816 C 210.587 442.510, 210.491 442.286, 210.204 435.750 C 209.923 429.330, 209.788 429, 207.454 429 L 205 429 205 445 M 246.400 429.765 C 243.854 431.465, 243 435.369, 243 445.299 C 243 454.338, 243.277 456.082, 245.073 458.365 C 246.657 460.380, 248.033 461, 250.918 461 C 257.249 461, 258 459.284, 258 444.826 C 258 433.971, 257.757 432.090, 256.171 430.655 C 254.310 428.970, 248.396 428.432, 246.400 429.765 M 281.557 431.223 C 280.362 432.929, 280 436.181, 280 445.223 C 280 455.667, 280.226 457.226, 282 459 C 284.348 461.348, 289.725 461.653, 292.534 459.598 C 294.061 458.483, 294.529 456.649, 294.835 450.598 L 295.219 443 291.609 443 C 288.426 443, 288 443.295, 288 445.500 C 288 446.875, 288.476 448, 289.057 448 C 289.683 448, 289.989 449.735, 289.807 452.250 C 289.556 455.731, 289.138 456.500, 287.500 456.500 C 285.616 456.500, 285.500 455.833, 285.500 445 C 285.500 434.186, 285.619 433.500, 287.490 433.500 C 288.920 433.500, 289.626 434.345, 289.997 436.500 C 290.366 438.648, 291.150 439.591, 292.756 439.820 C 294.698 440.096, 295 439.689, 295 436.792 C 295 431.437, 292.655 429, 287.500 429 C 284.101 429, 282.763 429.500, 281.557 431.223 M 248.667 433.667 C 248.300 434.033, 248 438.928, 248 444.544 C 248 452.401, 248.346 455.042, 249.500 456 C 250.697 456.993, 251.303 456.993, 252.500 456 C 253.636 455.057, 254 452.502, 254 445.459 C 254 440.347, 253.727 435.452, 253.393 434.582 C 252.781 432.988, 249.903 432.431, 248.667 433.667" stroke="none" fill="#337087" fill-rule="evenodd"/><path d="M 0 250.002 L 0 500.004 250.250 499.752 L 500.500 499.500 500.752 249.750 L 501.004 0 250.502 0 L 0 0 0 250.002 M 0.492 250.500 C 0.492 388, 0.608 444.101, 0.750 375.170 C 0.892 306.238, 0.892 193.738, 0.750 125.170 C 0.608 56.601, 0.492 113, 0.492 250.500 M 326.500 11.572 C 325.400 11.818, 322.025 12.501, 319 13.089 C 310.775 14.689, 296.444 22.022, 288.526 28.684 C 273.837 41.043, 265.742 54.323, 254.498 84.500 C 244.790 110.557, 240.347 119.437, 233.876 125.719 C 230.919 128.589, 228.114 130.895, 227.642 130.842 C 225.935 130.651, 212.610 142.712, 204.267 152 C 174.777 184.827, 154.711 222.191, 131.606 287.299 C 125.815 303.619, 125.167 306.767, 127.183 308.783 C 128.093 309.693, 130.355 306.113, 137.005 293.233 C 158.820 250.978, 184.092 215.811, 212.627 188 C 225.957 175.007, 242.150 161.185, 245.319 160.093 C 245.969 159.869, 240.200 166.199, 232.500 174.159 C 211.896 195.458, 201.353 207.210, 200.560 209.765 C 200.173 211.010, 199.467 211.788, 198.991 211.494 C 197.780 210.746, 178.009 234.755, 166.164 251.358 C 150.335 273.545, 127.601 313.031, 125.025 322.813 C 124.400 325.184, 123.613 327.846, 123.275 328.727 C 122.866 329.791, 123.053 330.086, 123.830 329.605 C 125.525 328.558, 125.268 329.804, 123.163 332.846 C 121.150 335.754, 119.299 340.148, 120.781 338.500 C 121.275 337.950, 124.616 332.966, 128.204 327.424 C 135.876 315.572, 147.541 299.620, 152.756 293.849 C 165.073 280.215, 187.039 266.009, 234.500 240.984 C 278.058 218.017, 293.570 208.003, 310.202 192.115 C 321.821 181.015, 328.267 171.766, 332.143 160.630 C 334.559 153.691, 334.961 151.035, 334.887 142.500 C 334.839 137, 334.489 131.382, 334.109 130.016 C 333.340 127.253, 337.755 117.307, 343.654 108.513 C 347.511 102.766, 347.618 102.308, 345.250 101.689 C 344.172 101.408, 344.555 101.187, 346.247 101.116 C 348.112 101.037, 350.519 99.456, 353.747 96.190 C 356.361 93.545, 360.446 89.761, 362.824 87.781 C 366.770 84.496, 366.966 84.124, 365.074 83.523 C 362.456 82.693, 362.367 81, 364.941 81 C 366.009 81, 367.160 80.550, 367.500 80 C 368.601 78.219, 370.996 78.847, 370.274 80.728 C 369.839 81.861, 371.352 81.178, 374.670 78.743 C 377.452 76.700, 382.827 73.219, 386.614 71.006 C 392.739 67.426, 393.671 66.470, 395.051 62.346 L 396.603 57.709 409.551 53.455 C 416.673 51.116, 424.975 48.037, 428 46.614 L 433.500 44.026 409.153 44.263 L 384.805 44.500 389.153 40.673 C 400.731 30.480, 415.324 22.314, 425.250 20.473 C 431.560 19.303, 429.432 18, 421.210 18 C 412.217 18, 404.097 19.869, 395.302 23.962 C 389.246 26.780, 388.969 26.815, 383.302 25.470 C 380.111 24.713, 372.958 22.313, 367.407 20.136 C 361.856 17.959, 354.392 15.275, 350.820 14.172 C 344.423 12.196, 330.406 10.697, 326.500 11.572 M 283.313 39.626 C 282.576 41.546, 286.167 44.333, 287.228 42.665 C 288.517 40.638, 288.067 39.251, 285.939 38.694 C 284.656 38.359, 283.665 38.711, 283.313 39.626 M 277.199 41.623 C 275.713 43.224, 276.428 45, 278.559 45 C 280.103 45, 280.434 43.220, 279.235 41.361 C 278.703 40.536, 278.140 40.609, 277.199 41.623 M 333.667 44.667 C 332.398 45.935, 333.007 49.065, 334.645 49.694 C 336.589 50.440, 339.123 47.484, 338.324 45.403 C 337.768 43.954, 334.842 43.491, 333.667 44.667 M 346.188 62.063 C 346.428 62.784, 347.216 63.572, 347.938 63.813 C 348.688 64.063, 349.063 63.688, 348.813 62.938 C 348.572 62.216, 347.784 61.428, 347.063 61.188 C 346.313 60.938, 345.938 61.313, 346.188 62.063 M 357.755 71.500 C 358.341 74.566, 359.133 74.634, 361.595 71.830 C 363.268 69.925, 363.291 69.737, 361.782 70.287 C 360.837 70.631, 359.798 70.482, 359.473 69.956 C 358.324 68.098, 357.284 69.033, 357.755 71.500 M 352 72.723 C 352 73.981, 354.858 76.475, 355.530 75.803 C 355.795 75.538, 355.110 74.504, 354.006 73.506 C 352.903 72.507, 352 72.155, 352 72.723 M 361.677 73.703 C 360.551 73.995, 360.072 74.746, 360.427 75.669 C 360.742 76.491, 361 77.352, 361 77.582 C 361 78.289, 363.428 78.015, 364.784 77.155 C 366.018 76.371, 365.464 72.878, 364.143 73.116 C 363.789 73.180, 362.679 73.444, 361.677 73.703 M 329 84.893 C 329 85.384, 329.712 86.059, 330.582 86.393 C 333.028 87.332, 333.351 87.128, 332 85.500 C 330.620 83.838, 329 83.510, 329 84.893 M 316.500 88 C 316.149 88.567, 316.990 89, 318.441 89 C 319.848 89, 321 88.550, 321 88 C 321 87.450, 320.127 87, 319.059 87 C 317.991 87, 316.840 87.450, 316.500 88 M 330.056 92.561 C 331.950 93.970, 334.762 95.381, 336.305 95.697 C 338.132 96.072, 338.927 96.747, 338.586 97.636 C 338.298 98.386, 338.499 99, 339.031 99 C 339.564 99, 340 98.362, 340 97.582 C 340 94.315, 338.644 93.069, 334.399 92.433 C 331.966 92.068, 329.729 91.371, 329.429 90.885 C 329.128 90.398, 328.371 90, 327.747 90 C 327.122 90, 328.161 91.153, 330.056 92.561 M 329 95.933 C 329 96.446, 328.100 97.151, 327 97.500 C 324.342 98.344, 324.489 99.256, 327.507 100.656 C 330.199 101.904, 332.031 100.631, 330.191 98.791 C 329.622 98.222, 329.394 97.136, 329.685 96.378 C 329.976 95.620, 329.941 95, 329.607 95 C 329.273 95, 329 95.420, 329 95.933 M 329.667 107.667 C 329.300 108.033, 329.029 109.271, 329.063 110.417 C 329.122 112.332, 329.204 112.307, 330.085 110.105 C 331.064 107.657, 330.861 106.472, 329.667 107.667 M 270.161 111.016 C 259.266 112.532, 247.417 117.348, 240 123.274 L 237.500 125.271 240 124.725 C 241.375 124.424, 247.126 122.801, 252.780 121.118 C 266.615 116.999, 278.629 115.007, 289.662 115.003 C 302.856 114.999, 311.155 116.764, 329.500 123.479 C 330.601 123.882, 330.152 123.262, 328.500 122.099 C 324.393 119.209, 310.915 114.087, 303.127 112.458 C 294.509 110.654, 277.961 109.931, 270.161 111.016 M 298.228 124.912 C 296.839 128.742, 297.113 129.774, 298.934 127.579 C 299.605 126.771, 299.998 125.073, 299.809 123.805 C 299.503 121.758, 299.326 121.881, 298.228 124.912 M 273.061 128 C 273.061 130.855, 273.249 131.178, 274.080 129.750 C 274.772 128.561, 274.772 127.439, 274.080 126.250 C 273.249 124.822, 273.061 125.145, 273.061 128 M 291.720 130.332 C 291.324 131.339, 291.029 133.139, 291.063 134.332 C 291.124 136.389, 291.177 136.375, 292.101 134.062 C 292.636 132.722, 292.932 130.922, 292.758 130.062 C 292.497 128.777, 292.313 128.825, 291.720 130.332 M 318.667 130.667 C 317.711 131.622, 317.845 133, 318.893 133 C 319.384 133, 320.045 132.325, 320.362 131.500 C 320.947 129.976, 319.881 129.452, 318.667 130.667 M 304.607 137.250 C 304.015 140.343, 304.286 144, 305.107 144 C 306.128 144, 307 141.198, 307 137.918 C 307 134.486, 305.231 133.992, 304.607 137.250 M 285 148.333 C 285 150.900, 285.407 153, 285.905 153 C 286.720 153, 286.239 145.091, 285.362 144.083 C 285.163 143.854, 285 145.767, 285 148.333 M 291 147.700 C 291 151.799, 292.422 151.266, 293.538 146.750 C 294.067 144.608, 293.861 144, 292.608 144 C 291.420 144, 291 144.967, 291 147.700 M 300.250 145.559 C 298.801 147.131, 298.547 154, 299.937 154 C 300.453 154, 300.638 155.688, 300.349 157.750 L 299.823 161.500 301.411 158.636 C 303.017 155.741, 303.344 150.296, 302.150 146.351 C 301.610 144.568, 301.288 144.433, 300.250 145.559 M 245.919 149.414 C 245.674 149.659, 245.638 151.914, 245.838 154.426 C 246.241 159.500, 248.009 159.718, 247.985 154.691 C 247.970 151.553, 246.791 148.542, 245.919 149.414 M 250.738 187.614 C 250.101 188.646, 251.580 191.784, 252.320 190.971 C 252.556 190.712, 252.433 189.630, 252.047 188.566 C 251.661 187.503, 251.072 187.074, 250.738 187.614 M 254.268 200.474 C 238.158 208.627, 221.241 219.406, 209.504 228.996 C 205.377 232.369, 202 234.951, 202 234.733 C 202 233.806, 170.750 265.198, 164.404 272.500 C 152.206 286.536, 138.124 305.916, 128.575 321.809 C 122.726 331.542, 124.953 330.130, 131.804 319.760 C 162.175 273.791, 201.928 237.328, 266.500 196.208 C 274.958 190.821, 269.756 192.636, 254.268 200.474 M 390.948 246.563 C 389.876 247.854, 389.947 248.950, 391.351 252.855 C 392.286 255.456, 392.848 258.690, 392.600 260.042 C 392.352 261.394, 392.115 267.054, 392.074 272.620 L 392 282.740 387.659 283.955 C 385.272 284.624, 382.031 286.197, 380.457 287.452 C 377.619 289.716, 377.610 289.756, 379.383 292.462 L 381.170 295.189 383.335 293.219 C 385.903 290.883, 389.994 288.660, 390.603 289.270 C 390.841 289.508, 391.143 317.332, 391.275 351.101 C 391.496 407.952, 391.650 412.852, 393.350 417.249 C 394.361 419.861, 395.561 422.229, 396.017 422.511 C 396.474 422.793, 397.782 420.527, 398.924 417.474 C 400.943 412.078, 401 410.229, 401 350.462 C 401 282.510, 400.614 286.088, 407.316 291.973 L 410.702 294.946 413.101 292.392 C 415.483 289.857, 415.486 289.828, 413.500 288.310 C 410.694 286.165, 403.822 283.048, 401.842 283.022 C 400.361 283.002, 400.213 281.423, 400.459 268.250 C 400.610 260.137, 401.077 251.988, 401.497 250.139 C 402.049 247.708, 401.878 246.537, 400.880 245.905 C 398.595 244.457, 392.352 244.871, 390.948 246.563 M 392.270 247.250 C 391.159 248.673, 392.527 255, 393.945 255 C 395.239 255, 395.626 253.236, 395.177 249.391 C 394.760 245.820, 393.887 245.177, 392.270 247.250 M 397 251 C 397 255.339, 398.399 256.372, 399.370 252.750 C 400.378 248.988, 400.077 247, 398.500 247 C 397.417 247, 397 248.111, 397 251 M 394.500 271 C 393.239 271.542, 393.055 271.859, 394 271.859 C 394.825 271.859, 396.400 271.473, 397.500 271 C 398.761 270.458, 398.945 270.141, 398 270.141 C 397.175 270.141, 395.600 270.527, 394.500 271 M 238.458 279.424 C 237.019 281.620, 237.016 282.130, 238.419 284.844 C 240.285 288.451, 246.362 293.543, 254.500 298.317 C 262.248 302.862, 266.428 307.306, 268.686 313.395 C 270.782 319.050, 272.633 320.560, 276.330 319.632 C 279.802 318.761, 280.713 315.043, 278.706 309.933 C 276.792 305.060, 277.827 304.870, 284.217 308.922 C 292.140 313.947, 296.965 325, 296.988 338.179 C 297.001 345.519, 298.394 348, 302.500 348 C 306.221 348, 308 345.434, 308 340.065 C 308 335.634, 306.686 326.788, 305.438 322.820 C 304.973 321.341, 305.269 321.275, 307.905 322.270 C 310.453 323.232, 311.218 323.113, 313.029 321.473 C 315.722 319.036, 315.152 315.534, 311.103 309.649 C 305.272 301.174, 296.828 297.200, 277.901 294.024 C 263.234 291.562, 256.839 288.852, 249.651 282.054 C 243.727 276.452, 240.849 275.775, 238.458 279.424 M 395.500 280.535 C 392.988 281.745, 392.906 281.882, 395 281.378 C 396.375 281.046, 397.928 280.376, 398.450 279.888 C 399.746 278.677, 399.034 278.833, 395.500 280.535 M 395 282.896 C 392.884 283.485, 392.769 283.695, 394.250 284.265 C 396.238 285.029, 399 284.231, 399 282.893 C 399 281.896, 398.588 281.896, 395 282.896 M 214.607 285.095 C 213.173 286.222, 212 287.946, 212 288.925 C 212 291.446, 222.225 311.968, 226.942 318.915 C 229.118 322.119, 232.946 326.788, 235.449 329.291 C 237.952 331.794, 240 334.724, 240 335.802 C 240 336.880, 241.185 340.853, 242.634 344.631 C 247.190 356.510, 249.174 365.193, 249.535 374.827 C 249.728 380.003, 250.409 384.788, 251.064 385.577 C 252.731 387.586, 255.657 387.343, 258 385 C 259.660 383.340, 259.996 381.684, 259.979 375.250 C 259.968 370.988, 259.340 364.575, 258.585 361 C 257.830 357.425, 257.335 354.367, 257.485 354.204 C 258.098 353.541, 267.736 365.241, 270.942 370.540 C 272.834 373.669, 275.170 379.397, 276.133 383.269 C 277.931 390.505, 279.001 391.958, 282.550 391.985 C 287.422 392.021, 288.221 387.137, 285.024 376.855 C 282.786 369.656, 276.896 360.442, 268.631 351.212 C 265.534 347.754, 263 344.723, 263 344.477 C 263 343.732, 273.215 347.972, 277.678 350.569 C 281.061 352.537, 282.251 354.054, 283.928 358.538 C 285.068 361.583, 286 364.483, 286 364.981 C 286 366.109, 290.036 369, 291.612 369 C 292.253 369, 293.769 368.198, 294.980 367.217 C 297.168 365.446, 297.171 365.395, 295.478 359.467 C 291.607 345.915, 286.453 341.476, 266.455 334.465 C 259.609 332.065, 252.083 328.777, 249.731 327.159 C 240.671 320.925, 232.857 310.406, 225.342 294.324 C 220.369 283.683, 218.473 282.053, 214.607 285.095 M 385.169 287.179 C 378.851 289.118, 378.152 289.752, 380.141 291.741 C 380.995 292.595, 382.183 292.268, 384.873 290.441 C 388.633 287.886, 393.835 287.235, 395.687 289.087 C 396.470 289.870, 396.962 289.870, 397.446 289.087 C 398.686 287.081, 404.703 287.879, 407.766 290.457 C 409.977 292.317, 410.967 292.633, 411.843 291.757 C 413.689 289.911, 413.259 289.321, 408.750 287.516 C 402.578 285.046, 392.581 284.903, 385.169 287.179 M 392.986 291.215 C 392.979 292.472, 392.703 294.508, 392.372 295.740 C 391.909 297.468, 392.303 298.177, 394.099 298.841 C 397.448 300.080, 400.002 299.122, 399.986 296.633 C 399.965 293.234, 398.849 289.975, 397.907 290.557 C 397.431 290.852, 396.132 290.606, 395.021 290.011 C 393.268 289.073, 392.998 289.233, 392.986 291.215 M 392.228 355.664 C 392.546 404.539, 392.796 411.999, 394.229 415.500 C 395.771 419.263, 395.857 415.979, 395.684 360.014 C 395.509 303.391, 395.412 300.510, 393.682 300.177 C 391.939 299.842, 391.879 302.125, 392.228 355.664 M 397.667 300.667 C 397.300 301.033, 397.034 327.696, 397.076 359.917 C 397.141 410.172, 397.344 418.002, 398.500 415 C 399.569 412.224, 399.864 399.966, 399.924 355.750 C 399.966 325.087, 399.625 300, 399.167 300 C 398.708 300, 398.033 300.300, 397.667 300.667 M 111.293 362.107 C 109.585 366.173, 103.011 380.527, 96.684 394.005 C 75.385 439.372, 69.202 458.200, 67.421 483.119 C 66.869 490.841, 66.983 492.281, 68.063 491.262 C 68.844 490.526, 69.282 488.232, 69.146 485.595 C 68.833 479.549, 73.264 458.245, 77.091 447.398 C 85.029 424.898, 98.306 398.120, 111.678 377.643 C 119.558 365.576, 121.353 364.105, 115.118 374.826 C 109.597 384.317, 98.635 406.443, 94.477 416.488 C 90.140 426.965, 69.856 486.190, 70.414 486.747 C 71.441 487.775, 89.348 454.425, 96.169 438.781 C 98.395 433.677, 103.768 420.322, 108.108 409.105 C 112.448 397.888, 118.238 384.456, 120.975 379.257 L 125.951 369.805 121.726 364.608 C 119.402 361.750, 116.802 358.354, 115.949 357.062 C 114.415 354.740, 114.362 354.797, 111.293 362.107 M 205 445 L 205 461 207.500 461 C 209.929 461, 210 460.800, 210 454 L 210 447 213 447 L 216 447 216 454 C 216 460.800, 216.071 461, 218.500 461 L 221 461 221 445 L 221 429 218.500 429 C 216.069 429, 216 429.196, 216 436.066 L 216 443.133 213.250 442.816 C 210.587 442.510, 210.491 442.286, 210.204 435.750 C 209.923 429.330, 209.788 429, 207.454 429 L 205 429 205 445 M 246.400 429.765 C 243.854 431.465, 243 435.369, 243 445.299 C 243 454.338, 243.277 456.082, 245.073 458.365 C 246.657 460.380, 248.033 461, 250.918 461 C 257.249 461, 258 459.284, 258 444.826 C 258 433.971, 257.757 432.090, 256.171 430.655 C 254.310 428.970, 248.396 428.432, 246.400 429.765 M 281.557 431.223 C 280.362 432.929, 280 436.181, 280 445.223 C 280 455.667, 280.226 457.226, 282 459 C 284.348 461.348, 289.725 461.653, 292.534 459.598 C 294.061 458.483, 294.529 456.649, 294.835 450.598 L 295.219 443 291.609 443 C 288.426 443, 288 443.295, 288 445.500 C 288 446.875, 288.476 448, 289.057 448 C 289.683 448, 289.989 449.735, 289.807 452.250 C 289.556 455.731, 289.138 456.500, 287.500 456.500 C 285.616 456.500, 285.500 455.833, 285.500 445 C 285.500 434.186, 285.619 433.500, 287.490 433.500 C 288.920 433.500, 289.626 434.345, 289.997 436.500 C 290.366 438.648, 291.150 439.591, 292.756 439.820 C 294.698 440.096, 295 439.689, 295 436.792 C 295 431.437, 292.655 429, 287.500 429 C 284.101 429, 282.763 429.500, 281.557 431.223 M 248.667 433.667 C 248.300 434.033, 248 438.928, 248 444.544 C 248 452.401, 248.346 455.042, 249.500 456 C 250.697 456.993, 251.303 456.993, 252.500 456 C 253.636 455.057, 254 452.502, 254 445.459 C 254 440.347, 253.727 435.452, 253.393 434.582 C 252.781 432.988, 249.903 432.431, 248.667 433.667" stroke="none" fill="#faf9f6" fill-rule="evenodd"/></svg>